<?xml version="1.0" encoding="UTF-8"?>
<svg width="128" height="128" viewBox="0 0 24 24" xmlns="http://www.w3.org/2000/svg">
    <path fill="#875A7B" d="M19.5,10c-0.2-1.8-1.2-4-2.3-5c-0.8-0.7-2.5-1-3.7-1h-3c-1.2,0-2.9,0.3-3.7,1C5.7,6,4.7,8.2,4.5,10
        C4.2,10,4,10.2,4,10.5v1C4,11.8,4.2,12,4.5,12h0.2C4.2,12.5,4,13,4,13.5v1C4,14.8,4.2,15,4.5,15h1C5.8,15,6,14.8,6,14.5v-1
        c0-0.5-0.2-1-0.5-1.5h13C18.2,12.5,18,13,18,13.5v1c0,0.3,0.2,0.5,0.5,0.5h1c0.3,0,0.5-0.2,0.5-0.5v-1c0-0.5-0.2-1-0.5-1.5h0.2
        c0.3,0,0.5-0.2,0.5-0.5v-1C20,10.2,19.8,10,19.5,10z M7.5,11.5c-0.8,0-1.5-0.7-1.5-1.5s0.7-1.5,1.5-1.5S9,9.2,9,10
        S8.3,11.5,7.5,11.5z M16.5,11.5c-0.8,0-1.5-0.7-1.5-1.5s0.7-1.5,1.5-1.5s1.5,0.7,1.5,1.5S17.3,11.5,16.5,11.5z M6.9,6.2
        c0.5-0.5,1.5-0.7,2.6-0.7h5.1c1,0,2,0.2,2.6,0.7c0.7,0.6,1.5,2.3,1.7,3.8H5.2C5.4,8.5,6.2,6.8,6.9,6.2z"/>
</svg>